<svg width="24" height="24" viewBox="0 0 24 24" fill="none" xmlns="http://www.w3.org/2000/svg">
<path d="M15.2683 7.03335V6.37141C15.2683 5.4446 15.2683 4.98119 15.0902 4.6272C14.9335 4.31582 14.6834 4.06266 14.3759 3.904C14.0263 3.72363 13.5686 3.72363 12.6532 3.72363H11.3457C10.4303 3.72363 9.97264 3.72363 9.62302 3.904C9.31548 4.06266 9.06544 4.31582 8.90874 4.6272C8.7306 4.98119 8.7306 5.4446 8.7306 6.37141V7.03335M10.365 11.5842V15.7214M13.6339 11.5842V15.7214M4.64453 7.03335H19.3544M17.72 7.03335V16.3006C17.72 17.6908 17.72 18.3859 17.4527 18.9169C17.2177 19.3839 16.8426 19.7637 16.3813 20.0017C15.8569 20.2722 15.1704 20.2722 13.7973 20.2722H10.2016C8.82854 20.2722 8.14201 20.2722 7.61758 20.0017C7.15627 19.7637 6.78122 19.3839 6.54617 18.9169C6.27896 18.3859 6.27896 17.6908 6.27896 16.3006V7.03335" stroke="red" stroke-linecap="round" stroke-linejoin="round"/>
</svg>
